<?xml version="1.0" standalone="no"?>
<!DOCTYPE svg PUBLIC "-//W3C//DTD SVG 20010904//EN"
 "http://www.w3.org/TR/2001/REC-SVG-20010904/DTD/svg10.dtd">
<svg version="1.0" xmlns="http://www.w3.org/2000/svg"
 width="177.000000pt" height="106.000000pt" viewBox="0 0 177.000000 106.000000"
 preserveAspectRatio="xMidYMid meet">
<metadata>
Created by potrace 1.16, written by Peter Selinger 2001-2019
</metadata>
<g transform="translate(0.000000,106.000000) scale(0.100000,-0.100000)"
fill="#000000" stroke="none">
<path d="M856 923 c-3 -15 -13 -75 -21 -133 -9 -58 -18 -116 -20 -130 -17
-113 -27 -167 -32 -180 -2 -8 -24 43 -47 114 -23 71 -47 131 -53 133 -6 2 -19
-10 -29 -26 -17 -29 -22 -31 -77 -31 -54 0 -58 2 -55 22 2 11 -3 23 -9 25 -8
3 -13 -5 -13 -21 0 -33 -19 -33 -54 -1 -31 29 -86 34 -110 9 -9 -9 -16 -32
-16 -54 0 -67 68 -93 115 -46 48 48 58 43 77 -37 12 -46 31 -91 55 -127 42
-59 125 -130 131 -110 2 6 -6 19 -19 28 -68 46 -138 155 -153 240 l-6 32 48 1
c75 3 78 3 93 16 12 10 19 -2 43 -75 52 -160 72 -207 86 -207 10 0 23 57 50
221 21 122 39 227 42 235 4 12 12 -13 55 -173 18 -67 37 -75 59 -23 13 32 16
34 30 21 12 -12 37 -15 117 -13 98 2 102 1 105 -20 2 -12 -8 -50 -22 -86 -14
-35 -26 -71 -26 -80 0 -9 -10 -22 -22 -28 -35 -18 -68 -51 -68 -68 0 -23 94
74 118 122 11 23 26 65 33 92 18 75 18 75 27 75 5 0 24 -14 42 -31 27 -26 37
-30 64 -25 17 3 37 14 44 23 18 25 15 77 -6 96 -29 26 -84 22 -110 -8 -34 -39
-48 -32 -55 25 -3 28 -11 58 -17 68 -9 13 -10 1 -5 -50 l6 -68 -100 0 -100 0
-16 31 c-18 34 -34 34 -52 -1 -9 -18 -13 -20 -17 -10 -10 32 -47 158 -59 205
-15 58 -42 73 -51 28z"/>
<path d="M124 188 c-46 -22 -60 -115 -23 -162 17 -22 28 -26 70 -26 45 0 52 3
67 29 l16 29 18 -29 c15 -24 24 -29 56 -29 49 0 72 24 72 73 0 44 -28 77 -65
77 -26 0 -75 -39 -75 -60 0 -5 -7 -10 -16 -10 -9 0 -25 -11 -36 -25 -37 -47
-88 -24 -88 40 0 42 17 65 49 65 16 0 34 -7 41 -15 7 -8 21 -15 31 -15 18 0
19 2 5 29 -22 41 -72 54 -122 29z"/>
<path d="M697 194 c-4 -4 -7 -17 -7 -29 0 -18 -5 -21 -27 -18 -44 7 -68 -18
-68 -70 0 -62 16 -77 82 -77 l54 0 -3 97 c-3 89 -12 116 -31 97z"/>
<path d="M1003 143 c-21 -4 -23 -10 -23 -74 0 -55 3 -69 15 -69 11 0 15 11 15
36 0 39 15 74 31 74 6 0 17 -7 25 -15 9 -8 11 -15 5 -15 -17 0 -25 -48 -11
-65 8 -10 31 -14 71 -14 l58 1 -5 47 c-9 82 -13 90 -41 97 -15 4 -39 2 -55 -4
-16 -6 -28 -6 -28 -1 0 9 -17 10 -57 2z"/>
<path d="M1480 130 c-23 -23 -28 -98 -8 -118 17 -17 84 -15 102 4 32 31 7 47
-34 22 -16 -10 -23 -10 -37 5 -16 16 -15 17 35 17 49 0 52 2 52 25 0 32 -33
65 -65 65 -14 0 -34 -9 -45 -20z"/>
<path d="M404 123 c46 -142 71 -156 107 -61 l24 63 3 -63 c3 -54 6 -62 22 -62
18 0 20 7 20 71 l0 70 -42 -3 c-38 -3 -43 -6 -52 -35 -12 -42 -22 -42 -36 2
-8 24 -18 35 -31 35 -15 0 -19 -5 -15 -17z"/>
</g>
</svg>
